# Blender v2.77 (sub 0) OBJ File: ''
# www.blender.org
mtllib essencePylon.mtl
o essencePylon
v 0.625000 0.750000 0.250000
v 0.625000 0.250000 0.250000
v 0.625000 0.250000 0.000000
v 0.625000 0.750000 0.125000
v 0.250000 0.250000 0.375000
v 0.000000 0.250000 0.375000
v 0.125000 0.750000 0.375000
v 0.250000 0.750000 0.375000
v 0.375000 0.750000 0.125000
v 0.375000 0.250000 0.000000
v 0.375000 0.250000 0.250000
v 0.375000 0.750000 0.250000
v 0.625000 1.000000 0.437500
v 0.875000 0.750000 0.375000
v 0.750000 0.750000 0.375000
v 0.437500 1.000000 0.375000
v 0.562500 1.000000 0.375000
v 0.625000 1.000000 0.562500
v 0.750000 0.750000 0.625000
v 0.875000 0.750000 0.625000
v 0.750000 0.750000 0.250000
v 0.750000 0.750000 0.750000
v 0.250000 0.750000 0.250000
v 0.250000 0.750000 0.625000
v 0.250000 0.750000 0.750000
v 0.375000 0.750000 0.750000
v 0.625000 0.750000 0.750000
v 0.375000 1.000000 0.562500
v 0.375000 1.000000 0.437500
v 0.250000 0.250000 0.250000
v 0.750000 0.250000 0.250000
v 0.750000 0.250000 0.375000
v 0.250000 0.250000 0.750000
v 0.375000 0.250000 0.750000
v 0.125000 0.750000 0.625000
v 0.437500 1.000000 0.625000
v 0.562500 1.000000 0.625000
v 0.000000 0.250000 0.625000
v 0.625000 0.750000 0.875000
v 0.375000 0.750000 0.875000
v 0.000000 0.250000 0.000000
v 0.250000 0.250000 0.625000
v 1.000000 0.250000 0.375000
v 1.000000 0.250000 0.000000
v 0.000000 0.000000 0.000000
v 1.000000 0.250000 1.000000
v 0.625000 0.250000 1.000000
v 0.000000 0.250000 1.000000
v 1.000000 0.250000 0.625000
v 0.375000 0.250000 1.000000
v 0.625000 0.250000 0.750000
v 0.750000 0.250000 0.625000
v 0.750000 0.250000 0.750000
v 1.000000 0.000000 0.000000
v 0.000000 -0.000000 1.000000
v 1.000000 -0.000000 1.000000
vt 0.6250 0.8750
vt 0.6250 1.0000
vt 0.5781 1.0000
vt 0.5625 0.8750
vt 0.3750 0.5000
vt 0.3750 0.6250
vt 0.3125 0.5000
vt 0.3125 0.6250
vt 0.5781 0.7500
vt 0.6250 0.7500
vt 0.5625 0.8750
vt 0.6250 0.8750
vt 0.3438 0.6250
vt 0.3438 0.7500
vt 0.3125 0.6250
vt 0.3125 0.7500
vt 0.2812 0.7500
vt 0.2812 0.6250
vt 0.5625 0.8750
vt 0.5625 1.0000
vt 0.5000 0.8750
vt 0.5156 1.0000
vt 0.3125 0.6250
vt 0.2500 0.6250
vt 0.3125 0.5000
vt 0.2500 0.5000
vt 0.5000 0.8750
vt 0.5156 0.7500
vt 0.5625 0.8750
vt 0.5625 0.7500
vt 0.2812 0.7500
vt 0.2500 0.7500
vt 0.2812 0.6250
vt 0.2500 0.6250
vt 0.5000 0.7500
vt 0.4688 0.6250
vt 0.5000 0.6250
vt 0.4688 0.7500
vt 0.7500 1.0000
vt 0.7031 1.0000
vt 0.7500 0.8750
vt 0.6875 0.8750
vt 0.5000 0.6250
vt 0.4375 0.5000
vt 0.5000 0.5000
vt 0.1875 0.6562
vt 0.2500 0.6562
vt 0.1875 0.6875
vt 0.2500 0.7500
vt 0.1562 0.7500
vt 0.1562 0.6875
vt 0.0625 0.6875
vt 0.0938 0.7500
vt 0.0938 0.6875
vt 0.0000 0.7500
vt 0.0625 0.6875
vt 0.0000 0.6562
vt 0.0625 0.6875
vt 0.0625 0.6562
vt 0.0625 0.5625
vt 0.0000 0.5938
vt 0.0625 0.5938
vt 0.0000 0.5000
vt 0.0625 0.5625
vt 0.0938 0.5000
vt 0.0625 0.5625
vt 0.0938 0.5625
vt 0.1875 0.5938
vt 0.1875 0.5625
vt 0.2500 0.5938
vt 0.1562 0.5625
vt 0.1562 0.5000
vt 0.2500 0.5000
vt 0.2500 0.8750
vt 0.5000 0.8750
vt 0.2500 0.9375
vt 0.5000 0.9375
vt 0.5000 0.8750
vt 0.2500 0.8750
vt 0.2500 0.8125
vt 0.5000 0.8125
vt 0.5000 0.7500
vt 0.2500 0.8125
vt 0.2500 0.7500
vt 0.5000 0.8125
vt 0.2500 0.9375
vt 0.5000 1.0000
vt 0.2500 1.0000
vt 0.5000 0.9375
vt 0.2500 0.7500
vt 0.0000 1.0000
vt 0.0000 0.7500
vt 0.2500 1.0000
vt 0.3749 0.7500
vt 0.4062 0.6250
vt 0.4062 0.7500
vt 0.3750 0.6250
vt 0.4063 0.6250
vt 0.3751 0.7500
vt 0.3750 0.7500
vt 0.3438 0.7500
vt 0.3438 0.6250
vt 0.3750 0.6250
vt 0.6875 0.8750
vt 0.6406 0.7500
vt 0.6875 0.7500
vt 0.6250 0.8750
vt 0.4375 0.5000
vt 0.3750 0.6250
vt 0.3750 0.5000
vt 0.4375 0.6250
vt 0.6875 1.0000
vt 0.6406 1.0000
vt 0.6250 0.8750
vt 0.6875 0.8750
vt 0.4062 0.6250
vt 0.4377 0.6249
vt 0.4062 0.7500
vt 0.4375 0.7500
vt 0.4373 0.6251
vt 0.4375 0.6250
vt 0.4688 0.7500
vt 0.4688 0.6250
vt 0.7500 0.8750
vt 0.6875 0.8750
vt 0.7500 0.7500
vt 0.7031 0.7500
vt 0.4375 0.6250
vt 0.6250 0.5625
vt 0.6875 0.5000
vt 0.6562 0.5625
vt 0.6250 0.6250
vt 0.5625 0.5625
vt 0.5938 0.5625
vt 0.6250 0.5000
vt 0.5938 0.5625
vt 0.5625 0.5625
vt 0.5625 0.6250
vt 0.5000 0.5625
vt 0.5312 0.5625
vt 0.5312 0.5625
vt 0.5000 0.5625
vt 0.5625 0.5000
vt 0.7188 0.5625
vt 0.7500 0.6250
vt 0.6875 0.5625
vt 0.6875 0.5625
vt 0.7500 0.5000
vt 0.7188 0.5625
vt 0.6250 0.5625
vt 0.6562 0.5625
vt 0.6875 0.6250
vt 0.1875 0.6875
vt 0.0625 0.6875
vt 0.0625 0.5625
vt 0.1875 0.5625
vt 0.7031 0.7500
vt 0.6875 0.6875
vt 0.7500 0.6875
vt 0.7344 0.7500
vt 0.5469 0.6250
vt 0.5625 0.6875
vt 0.5156 0.6250
vt 0.5000 0.6875
vt 0.7500 0.6875
vt 0.6875 0.6875
vt 0.7344 0.6250
vt 0.7031 0.6250
vt 0.6406 0.7500
vt 0.6250 0.6875
vt 0.6719 0.7500
vt 0.6875 0.6875
vt 0.5625 0.6875
vt 0.6250 0.6875
vt 0.5781 0.7500
vt 0.6094 0.7500
vt 0.6406 0.6250
vt 0.6719 0.6250
vt 0.6875 0.6875
vt 0.6250 0.6875
vt 0.6250 0.6875
vt 0.5625 0.6875
vt 0.6094 0.6250
vt 0.5781 0.6250
vt 0.5469 0.7500
vt 0.5156 0.7500
vt 0.5000 0.6875
vt 0.5625 0.6875
vn 1.0000 0.0000 0.0000
vn 0.0000 0.2425 0.9701
vn -1.0000 0.0000 0.0000
vn 0.0000 -0.0000 1.0000
vn -0.9701 0.2425 0.0000
vn 0.0000 0.0000 -1.0000
vn 0.0000 0.2425 -0.9701
vn 0.0000 1.0000 0.0000
vn 0.0000 -1.0000 -0.0000
vn 0.9701 0.2425 0.0000
vn 0.0000 0.7071 -0.7071
vn 0.0000 -0.4472 0.8944
vn -0.8944 -0.4472 -0.0000
vn 0.7071 0.7071 0.0000
vn 0.0000 0.7071 0.7071
vn 0.0000 -0.4472 -0.8944
vn 0.8944 -0.4472 -0.0000
vn -0.7071 0.7071 0.0000
usemtl None.001
s off
f 51/1/1 27/2/1 39/3/1
f 47/4/1 51/1/1 39/3/1
f 47/5/2 39/6/2 50/7/2
f 40/8/2 50/7/2 39/6/2
f 40/9/3 26/10/3 50/11/3
f 34/12/3 50/11/3 26/10/3
f 34/13/4 26/14/4 33/15/4
f 33/15/4 26/14/4 25/16/4
f 25/16/3 24/17/3 33/15/3
f 42/18/3 33/15/3 24/17/3
f 42/19/4 24/20/4 38/21/4
f 35/22/4 38/21/4 24/20/4
f 35/23/5 7/24/5 38/25/5
f 38/25/5 7/24/5 6/26/5
f 6/27/6 7/28/6 5/29/6
f 7/28/6 8/30/6 5/29/6
f 8/31/3 23/32/3 5/33/3
f 23/32/3 30/34/3 5/33/3
f 23/35/6 11/36/6 30/37/6
f 12/38/6 11/36/6 23/35/6
f 12/39/3 9/40/3 11/41/3
f 10/42/3 11/41/3 9/40/3
f 9/43/7 3/44/7 10/45/7
f 51/46/8 47/47/8 53/48/8
f 47/47/8 46/49/8 53/48/8
f 49/50/8 53/48/8 46/49/8
f 52/51/8 53/48/8 49/50/8
f 32/52/8 43/53/8 31/54/8
f 43/53/8 44/55/8 31/56/8
f 44/55/8 3/57/8 31/56/8
f 3/57/8 2/58/8 31/59/8
f 11/60/8 10/61/8 30/62/8
f 41/63/8 30/64/8 10/61/8
f 41/63/8 6/65/8 30/64/8
f 6/65/8 5/66/8 30/67/8
f 34/68/8 33/69/8 50/70/8
f 42/71/8 38/72/8 33/69/8
f 38/72/8 48/73/8 33/69/8
f 48/73/8 50/70/8 33/69/8
f 55/74/4 56/75/4 48/76/4
f 46/77/4 48/76/4 56/75/4
f 44/78/1 46/79/1 56/80/1
f 54/81/1 44/78/1 56/80/1
f 45/82/6 44/83/6 54/84/6
f 45/82/6 41/85/6 44/83/6
f 45/86/3 48/87/3 41/88/3
f 55/89/3 48/87/3 45/86/3
f 56/90/9 45/91/9 54/92/9
f 55/93/9 45/91/9 56/90/9
f 22/94/1 52/95/1 19/96/1
f 53/97/1 52/98/1 22/99/1
f 51/100/4 53/101/4 22/102/4
f 27/103/4 51/100/4 22/102/4
f 52/104/4 20/105/4 19/106/4
f 49/107/4 20/105/4 52/104/4
f 43/108/10 20/109/10 49/110/10
f 20/109/10 43/108/10 14/111/10
f 15/112/6 14/113/6 43/114/6
f 32/115/6 15/112/6 43/114/6
f 32/116/1 31/117/1 15/118/1
f 21/119/1 15/118/1 31/120/1
f 21/119/6 31/121/6 1/122/6
f 2/123/6 1/122/6 31/121/6
f 2/124/1 3/125/1 1/126/1
f 3/125/1 4/127/1 1/126/1
f 4/128/7 3/44/7 9/43/7
f 20/129/2 18/130/2 19/131/2
f 37/132/10 39/133/10 27/134/10
f 36/135/5 26/136/5 40/137/5
f 28/138/2 35/139/2 24/140/2
f 8/141/7 7/142/7 29/143/7
f 12/144/5 16/145/5 9/146/5
f 4/147/10 17/148/10 1/149/10
f 14/150/7 15/151/7 13/152/7
f 22/153/8 21/154/8 23/155/8
f 22/153/8 23/155/8 25/156/8
f 17/157/11 4/158/11 9/159/11
f 16/160/11 17/157/11 9/159/11
f 16/161/12 12/162/12 17/163/12
f 12/162/12 1/164/12 17/163/12
f 15/165/13 19/166/13 13/167/13
f 18/168/13 13/167/13 19/166/13
f 18/169/14 20/170/14 13/171/14
f 14/172/14 13/171/14 20/170/14
f 40/173/15 39/174/15 36/175/15
f 37/176/15 36/175/15 39/174/15
f 36/177/16 37/178/16 27/179/16
f 27/179/16 26/180/16 36/177/16
f 24/181/17 8/182/17 28/183/17
f 29/184/17 28/183/17 8/182/17
f 28/185/18 29/186/18 7/187/18
f 28/185/18 7/187/18 35/188/18
l 19 21
l 47 48
