# Blender v2.77 (sub 0) OBJ File: 'essenceInfuser.obj'
# www.blender.org
mtllib essenceInfuser.mtl
o essenceInfuser
v 0.635723 1.000000 0.875000
v 0.687500 1.000000 1.000000
v 0.875000 1.000000 0.635723
v 0.364277 1.000000 0.875000
v 0.312500 1.000000 1.000000
v 0.000000 1.000000 0.687500
v 0.125000 1.000000 0.635723
v 0.125000 1.000000 0.364277
v 0.000000 1.000000 0.312500
v 1.000000 1.000000 0.687500
v 1.000000 1.000000 0.312500
v 0.875000 1.000000 0.364277
v 0.635723 1.000000 0.125000
v 0.687500 1.000000 0.000000
v 0.312500 1.000000 0.000000
v 0.364277 1.000000 0.125000
v 0.125000 0.875000 0.364277
v 0.364277 0.875000 0.125000
v 0.875000 0.875000 0.364277
v 0.875000 0.875000 0.635723
v 0.635723 0.875000 0.125000
v 0.635723 0.875000 0.875000
v 0.125000 0.875000 0.635723
v 0.364277 0.875000 0.875000
v 1.000000 0.875000 0.687500
v 0.687500 0.875000 0.000000
v 0.312500 0.875000 0.000000
v 1.000000 0.875000 0.312500
v 0.000000 0.875000 0.312500
v 0.000000 0.875000 0.687500
v 0.312500 0.875000 1.000000
v 0.687500 0.875000 1.000000
v 1.000000 0.875000 0.562500
v 0.875000 0.875000 0.562500
v 1.000000 0.875000 0.437500
v 0.875000 0.875000 0.437500
v 0.562500 0.875000 0.000000
v 0.562500 0.875000 0.125000
v 0.562500 0.875000 1.000000
v 0.562500 0.875000 0.875000
v 0.437500 0.875000 0.875000
v 0.437500 0.875000 1.000000
v 0.000000 0.875000 0.562500
v 0.125000 0.875000 0.562500
v 0.125000 0.875000 0.437500
v 0.000000 0.875000 0.437500
v 0.437500 0.875000 0.000000
v 0.437500 0.875000 0.125000
v 0.593750 0.625000 0.406250
v 0.406250 0.625000 0.406250
v 0.593750 0.625000 0.593750
v 0.406250 0.625000 0.593750
v 0.406250 0.716924 0.757170
v 0.593750 0.716924 0.757170
v 0.757170 0.716924 0.406250
v 0.757170 0.716924 0.593750
v 0.593750 0.716924 0.242830
v 0.406250 0.716924 0.242830
v 0.242830 0.716924 0.593750
v 0.242830 0.716924 0.406250
v 0.406250 0.125000 0.125000
v 0.406250 0.553504 0.150906
v 0.593750 0.553504 0.150906
v 0.849094 0.553504 0.406250
v 0.849094 0.553504 0.593750
v 0.593750 0.553504 0.849094
v 0.406250 0.553504 0.849094
v 0.150906 0.553504 0.593750
v 0.150906 0.553504 0.406250
v 0.125000 0.125000 0.406250
v 0.125000 0.125000 0.593750
v 0.406250 0.125000 0.875000
v 0.593750 0.125000 0.875000
v 0.875000 0.125000 0.593750
v 0.875000 0.125000 0.406250
v 0.593750 0.125000 0.125000
v 0.125000 0.125000 0.125000
v 0.125000 0.125000 0.875000
v 0.875000 0.125000 0.875000
v 0.875000 0.125000 0.125000
v 1.000000 0.125000 0.000000
v 0.000000 0.125000 0.000000
v 0.000000 0.125000 1.000000
v 1.000000 0.125000 1.000000
v 1.000000 -0.000000 1.000000
v 1.000000 0.000000 0.000000
v 0.000000 0.000000 0.000000
v 0.000000 -0.000000 1.000000
vt 0.4688 0.9062
vt 0.5000 0.9219
vt 0.4062 0.9688
vt 0.4688 0.8438
vt 0.5000 0.8281
vt 0.4219 0.7500
vt 0.4062 0.7812
vt 0.3438 0.7812
vt 0.3281 0.7500
vt 0.4219 1.0000
vt 0.3281 1.0000
vt 0.3438 0.9688
vt 0.2812 0.9062
vt 0.2500 0.9219
vt 0.2500 0.8281
vt 0.2812 0.8438
vt 0.3438 0.2500
vt 0.4219 0.2500
vt 0.3438 0.2812
vt 0.4219 0.2812
vt 0.4844 0.2812
vt -0.0000 0.2500
vt 0.0625 0.2500
vt 0.0625 0.2812
vt 0.5625 0.2500
vt 0.4844 0.2500
vt 0.5625 0.2812
vt -0.0000 0.2812
vt 0.1406 0.2500
vt 0.1406 0.2812
vt 0.2031 0.2812
vt 0.2812 0.2500
vt 0.2031 0.2500
vt 0.2812 0.2812
vt -0.0000 0.3281
vt -0.0000 0.2969
vt 0.0938 0.3281
vt 0.2031 0.2969
vt 0.2969 0.2969
vt 0.2969 0.3281
vt 0.0938 0.2969
vt 0.2031 0.3281
vt 0.4062 0.2969
vt 0.4062 0.3281
vt 0.0000 0.3750
vt 0.0000 0.3438
vt 0.0938 0.3750
vt 0.0938 0.3438
vt 0.2031 0.3438
vt 0.2031 0.3750
vt 0.2969 0.3750
vt 0.4062 0.3438
vt 0.2969 0.3438
vt 0.4062 0.3750
vt 0.5000 0.5781
vt 0.4688 0.5938
vt 0.4219 0.5000
vt 0.4062 0.5312
vt 0.3906 0.5000
vt 0.3906 0.5312
vt 0.3281 0.5000
vt 0.3438 0.5312
vt 0.2500 0.5781
vt 0.3594 0.5000
vt 0.3594 0.5312
vt 0.2812 0.5938
vt 0.2500 0.6094
vt 0.2812 0.6094
vt 0.5000 0.6094
vt 0.4688 0.6094
vt 0.4688 0.6406
vt 0.5000 0.6406
vt 0.4688 0.6562
vt 0.5000 0.6719
vt 0.4062 0.7188
vt 0.4219 0.7500
vt 0.3906 0.7500
vt 0.3906 0.7188
vt 0.3594 0.7188
vt 0.3594 0.7500
vt 0.3438 0.7188
vt 0.3281 0.7500
vt 0.2812 0.6562
vt 0.2500 0.6719
vt 0.2500 0.6406
vt 0.2812 0.6406
vt 0.2969 0.1406
vt 0.2500 0.1406
vt 0.2969 0.1875
vt 0.2500 0.1875
vt 0.3125 0.2500
vt 0.3594 0.2031
vt 0.3125 0.2031
vt 0.3594 0.2500
vt 0.0625 0.1875
vt 0.1250 0.1875
vt 0.0781 0.2500
vt 0.1094 0.2500
vt 0.3750 0.2031
vt 0.3750 0.2500
vt 0.4219 0.2031
vt 0.4219 0.2500
vt 0.0625 0.1875
vt 0.0469 0.2500
vt -0.0000 0.1875
vt 0.0156 0.2500
vt 0.4844 0.2500
vt 0.4844 0.2031
vt 0.4375 0.2500
vt 0.4375 0.2031
vt 0.2500 0.1875
vt 0.2031 0.2500
vt 0.1875 0.1875
vt 0.2344 0.2500
vt 0.2500 0.2500
vt 0.2969 0.2500
vt 0.2969 0.2031
vt 0.2500 0.2031
vt 0.1250 0.1875
vt 0.1875 0.1875
vt 0.1719 0.2500
vt 0.1406 0.2500
vt 0.9062 0.8125
vt 0.9844 0.9375
vt 0.9062 0.9375
vt 0.9531 0.9531
vt 0.8750 1.0000
vt 0.9062 1.0000
vt 0.9219 0.7031
vt 1.0000 0.7500
vt 0.9688 0.7500
vt 0.9688 0.6875
vt 0.7812 1.0000
vt 0.7500 1.0000
vt 0.8281 0.9531
vt 0.7812 0.9375
vt 0.8438 0.7500
vt 0.7969 0.7031
vt 0.8750 0.7500
vt 0.8438 0.6875
vt 0.6250 1.0000
vt 0.7031 0.9531
vt 0.6562 1.0000
vt 0.6562 0.9375
vt 0.6719 0.7031
vt 0.7188 0.6875
vt 0.7500 0.7500
vt 0.7188 0.7500
vt 0.5000 1.0000
vt 0.5781 0.9531
vt 0.5312 1.0000
vt 0.5312 0.9375
vt 0.6250 0.7500
vt 0.5469 0.7031
vt 0.5938 0.6875
vt 0.5938 0.7500
vt 0.5156 0.6875
vt 0.5938 0.5625
vt 0.6094 0.9375
vt 0.5312 0.8125
vt 0.7188 0.5625
vt 0.6406 0.6875
vt 0.7344 0.9375
vt 0.6562 0.8125
vt 0.7656 0.6875
vt 0.8438 0.5625
vt 0.7812 0.8125
vt 0.8594 0.9375
vt 0.8906 0.6875
vt 0.9688 0.5625
vt 0.0312 0.8750
vt 0.0312 0.9688
vt 0.1250 0.8750
vt 0.1250 0.7812
vt 0.2188 0.7812
vt 0.1250 0.7812
vt 0.0312 0.7812
vt 0.1250 0.8750
vt 0.2188 0.7812
vt 0.2188 0.8750
vt 0.2188 0.8750
vt 0.2188 0.9688
vt 0.1250 0.8750
vt 0.1250 0.9688
vt 0.1250 0.8750
vt 0.1250 0.9688
vt 0.0312 0.9688
vt 0.0312 0.8750
vt 0.0312 0.7812
vt 0.4375 0.1094
vt 0.4375 -0.0000
vt 0.4844 0.1094
vt 0.4844 -0.0000
vt 0.4844 0.3750
vt 0.4844 0.5000
vt 0.4375 0.5000
vt 0.4375 0.3750
vt 0.2500 -0.0000
vt 0.2969 0.1094
vt 0.2500 0.1094
vt 0.2969 -0.0000
vt 0.2969 0.3750
vt 0.2969 0.5000
vt 0.2500 0.5000
vt 0.2500 0.3750
vt 0.3750 0.1094
vt 0.3750 -0.0000
vt 0.4219 0.1094
vt 0.4219 -0.0000
vt 0.3125 0.5000
vt 0.3125 0.3750
vt 0.3594 0.5000
vt 0.3594 0.3750
vt 0.3594 0.1094
vt 0.3125 -0.0000
vt 0.3594 -0.0000
vt 0.3125 0.1094
vt 0.4219 0.5000
vt 0.3750 0.5000
vt 0.4219 0.3750
vt 0.3750 0.3750
vt -0.0000 1.0000
vt 0.0312 0.7812
vt -0.0000 0.7500
vt 0.2500 0.7500
vt 0.2500 1.0000
vt 0.2500 0.4375
vt 0.0000 0.4062
vt 0.2500 0.4062
vt -0.0000 0.4375
vt 0.0000 0.3750
vt 0.2500 0.3750
vt 0.2500 0.4062
vt 0.0000 0.4688
vt 0.2500 0.5000
vt 0.0000 0.5000
vt 0.2500 0.4688
vt 0.0000 0.4375
vt 0.0000 0.4688
vt 0.2500 0.4688
vt -0.0000 0.7500
vt -0.0000 0.5000
vt 0.2500 0.7500
vt 0.2500 0.5000
vn 0.0000 1.0000 0.0000
vn 0.7071 0.0000 0.7071
vn 0.0000 -0.0000 1.0000
vn -1.0000 0.0000 0.0000
vn -0.7071 -0.0000 0.7071
vn -0.7071 0.0000 -0.7071
vn 0.0000 0.0000 -1.0000
vn 1.0000 0.0000 0.0000
vn 0.7071 0.0000 -0.7071
vn -0.0000 -1.0000 -0.0000
vn 0.5393 -0.0432 -0.8410
vn 0.0000 -0.9303 -0.3669
vn 0.0000 0.8716 -0.4903
vn 0.0000 0.5976 -0.8018
vn -0.4903 0.8716 0.0000
vn -0.8018 0.5976 0.0000
vn 0.0000 0.8716 0.4903
vn 0.0000 0.5976 0.8018
vn 0.4903 0.8716 0.0000
vn 0.8018 0.5976 0.0000
vn 0.7574 0.6104 -0.2318
vn -0.9942 0.0527 -0.0937
vn -0.9810 0.1939 0.0000
vn 0.9810 0.1939 0.0000
vn 0.9942 0.0527 -0.0937
vn 0.0000 0.1939 -0.9810
vn 0.0937 0.0527 -0.9942
vn 0.0000 0.1939 0.9810
vn 0.0937 0.0527 0.9942
vn 0.9942 0.0527 0.0937
vn -0.9942 0.0527 0.0937
vn -0.0937 0.0527 0.9942
vn -0.8723 -0.3794 -0.3085
vn -0.0478 0.0269 -0.9985
vn -0.1052 -0.0242 -0.9942
vn 0.0000 0.4903 -0.8716
vn -0.8716 0.4903 0.0000
vn 0.0000 0.4903 0.8716
vn 0.8716 0.4903 0.0000
vn 0.0000 -0.4249 -0.9052
vn 0.0000 0.0603 -0.9982
vn -0.9052 -0.4249 -0.0000
vn -0.9982 0.0603 0.0000
vn 0.0000 -0.4249 0.9052
vn 0.0000 0.0603 0.9982
vn 0.9052 -0.4249 -0.0000
vn 0.9982 0.0603 0.0000
usemtl None.003
s 1
f 1/1/1 2/2/1 3/3/1
f 1/1/1 4/4/1 2/2/1
f 4/4/1 5/5/1 2/2/1
f 5/5/1 4/4/1 6/6/1
f 7/7/1 6/6/1 4/4/1
f 7/7/1 8/8/1 6/6/1
f 6/6/1 8/8/1 9/9/1
f 3/3/1 2/2/1 10/10/1
f 10/10/1 11/11/1 3/3/1
f 12/12/1 3/3/1 11/11/1
f 12/12/1 11/11/1 13/13/1
f 11/11/1 14/14/1 13/13/1
f 14/14/1 15/15/1 13/13/1
f 16/16/1 13/13/1 15/15/1
f 8/8/1 16/16/1 15/15/1
f 9/9/1 8/8/1 15/15/1
f 17/17/2 18/18/2 8/19/2
f 16/20/2 8/19/2 18/18/2
f 16/20/3 18/18/3 13/21/3
f 19/22/4 20/23/4 3/24/4
f 19/25/5 13/21/5 21/26/5
f 13/21/5 19/25/5 12/27/5
f 12/28/4 19/22/4 3/24/4
f 3/24/6 20/23/6 22/29/6
f 22/29/6 1/30/6 3/24/6
f 1/30/7 22/29/7 4/31/7
f 23/32/8 17/17/8 8/19/8
f 23/32/9 4/31/9 24/33/9
f 7/34/9 4/31/9 23/32/9
f 7/34/8 23/32/8 8/19/8
f 21/26/3 13/21/3 18/18/3
f 10/35/8 25/36/8 11/37/8
f 26/38/7 27/39/7 15/40/7
f 28/41/9 26/38/9 11/37/9
f 14/42/9 11/37/9 26/38/9
f 14/42/7 26/38/7 15/40/7
f 24/33/7 4/31/7 22/29/7
f 27/39/6 29/43/6 15/40/6
f 29/43/6 9/44/6 15/40/6
f 9/45/4 29/46/4 6/47/4
f 28/41/8 11/37/8 25/36/8
f 6/47/5 30/48/5 31/49/5
f 5/50/5 6/47/5 31/49/5
f 5/50/3 31/49/3 2/51/3
f 25/52/2 2/51/2 32/53/2
f 25/52/2 10/54/2 2/51/2
f 32/55/10 22/56/10 25/57/10
f 22/56/10 20/58/10 25/57/10
f 25/57/10 20/58/10 33/59/10
f 34/60/10 33/59/10 20/58/10
f 28/61/10 19/62/10 26/63/10
f 28/61/10 35/64/10 19/62/10
f 36/65/10 19/62/10 35/64/10
f 26/63/10 19/62/10 21/66/10
f 26/63/10 21/66/10 37/67/10
f 38/68/10 37/67/10 21/66/10
f 32/55/10 39/69/10 22/56/10
f 39/69/10 40/70/10 22/56/10
f 41/71/10 42/72/10 24/73/10
f 31/74/10 24/73/10 42/72/10
f 24/73/10 31/74/10 23/75/10
f 31/74/10 30/76/10 23/75/10
f 30/76/10 43/77/10 23/75/10
f 44/78/10 23/75/10 43/77/10
f 45/79/11 46/80/12 17/81/10
f 46/80/12 29/82/10 17/81/10
f 17/81/10 29/82/10 18/83/10
f 27/84/10 18/83/10 29/82/10
f 27/84/10 47/85/10 18/83/10
f 48/86/10 18/83/10 47/85/10
f 49/87/1 50/88/1 51/89/1
f 51/89/1 50/88/1 52/90/1
f 53/91/13 51/92/13 52/93/13
f 54/94/13 51/92/13 53/91/13
f 54/95/14 53/96/14 40/97/14
f 41/98/14 40/97/14 53/96/14
f 49/99/15 51/100/15 55/101/15
f 56/102/15 55/101/15 51/100/15
f 56/103/16 34/104/16 55/105/16
f 34/104/16 36/106/16 55/105/16
f 49/107/17 57/108/17 50/109/17
f 57/108/17 58/110/17 50/109/17
f 57/111/18 48/112/18 58/113/18
f 38/114/18 48/112/18 57/111/18
f 59/115/19 52/116/19 50/117/19
f 60/118/19 59/115/19 50/117/19
f 59/119/20 60/120/21 45/121/11
f 44/122/20 59/119/20 45/121/11
f 61/123/4 50/124/4 62/125/4
f 62/125/4 50/124/4 58/126/4
f 62/125/22 58/126/22 47/127/22
f 48/128/23 47/127/23 58/126/23
f 57/129/24 37/130/24 38/131/24
f 57/129/25 63/132/25 37/130/25
f 36/133/26 35/134/26 55/135/26
f 55/135/27 35/134/27 64/136/27
f 34/137/28 56/138/28 33/139/28
f 65/140/29 33/139/29 56/138/29
f 39/141/24 54/142/24 40/143/24
f 66/144/30 54/142/30 39/141/30
f 53/145/31 67/146/31 42/147/31
f 42/147/23 41/148/23 53/145/23
f 43/149/28 59/150/28 44/151/28
f 68/152/32 59/150/32 43/149/32
f 46/153/33 60/154/34 69/155/35
f 46/153/12 45/156/11 60/154/21
f 60/154/34 50/157/7 69/155/35
f 69/155/35 50/157/7 70/158/7
f 59/150/3 68/152/3 52/159/3
f 71/160/3 52/159/3 68/152/3
f 72/161/4 67/146/4 52/162/4
f 53/145/4 52/162/4 67/146/4
f 66/144/8 51/163/8 54/142/8
f 73/164/8 51/163/8 66/144/8
f 56/138/3 51/165/3 65/140/3
f 51/165/3 74/166/3 65/140/3
f 75/167/7 49/168/7 64/136/7
f 64/136/7 49/168/7 55/135/7
f 57/129/8 49/169/8 63/132/8
f 76/170/8 63/132/8 49/169/8
f 61/171/36 77/172/36 50/173/36
f 70/174/37 50/173/37 77/175/37
f 71/176/37 78/177/37 52/178/37
f 52/178/38 78/179/38 72/180/38
f 73/181/38 79/182/38 51/183/38
f 79/182/39 74/184/39 51/183/39
f 49/185/39 75/186/39 80/187/39
f 76/188/36 49/185/36 80/189/36
f 37/190/40 63/191/40 47/192/40
f 63/191/40 62/193/40 47/192/40
f 61/194/41 62/195/41 63/196/41
f 76/197/41 61/194/41 63/196/41
f 69/198/35 43/199/42 46/200/33
f 69/198/42 68/201/42 43/199/42
f 71/202/43 68/203/43 69/204/43
f 69/204/43 70/205/43 71/202/43
f 42/206/44 67/207/44 39/208/44
f 66/209/44 39/208/44 67/207/44
f 67/210/45 72/211/45 66/212/45
f 73/213/45 66/212/45 72/211/45
f 65/214/46 35/215/46 33/216/46
f 64/217/46 35/215/46 65/214/46
f 64/218/47 65/219/47 75/220/47
f 65/219/47 74/221/47 75/220/47
f 80/187/1 81/222/1 77/223/1
f 77/223/1 81/222/1 82/224/1
f 82/224/1 83/225/1 77/223/1
f 78/179/1 77/223/1 83/225/1
f 78/179/1 83/225/1 79/182/1
f 79/182/1 83/225/1 84/226/1
f 84/226/1 81/222/1 79/182/1
f 81/222/1 80/187/1 79/182/1
f 85/227/8 81/228/8 84/229/8
f 81/228/8 85/227/8 86/230/8
f 86/231/7 87/232/7 81/228/7
f 81/228/7 87/232/7 82/233/7
f 87/234/4 83/235/4 82/236/4
f 83/235/4 87/234/4 88/237/4
f 88/238/3 85/227/3 83/239/3
f 84/240/3 83/239/3 85/227/3
f 88/241/10 87/242/10 85/243/10
f 86/244/10 85/243/10 87/242/10
f 2/51/3 31/49/3 32/53/3
f 30/48/4 6/47/4 29/46/4
l 70 78
