# Blender v2.77 (sub 0) OBJ File: 'Boss Core.blend'
# www.blender.org
mtllib Boss Core.mtl
o Cube.001_Cube.003
v 1.000000 4.250000 -1.750000
v 1.000000 4.500000 -1.250000
v 1.500000 4.250000 -1.000000
v 2.000000 4.500000 -1.750000
v 2.000000 0.500000 -1.750000
v 1.500000 4.500000 -2.000000
v 1.500000 0.000000 -1.500000
v 2.000000 4.500000 -1.250000
v 1.500000 0.500000 -1.000000
v 1.500000 5.000000 -1.500000
v 0.500000 3.500000 -2.500000
v 0.500000 1.500000 -2.500000
v 0.500000 3.750000 -2.000000
v 0.500000 1.500000 -2.000000
v 1.000000 3.750000 -1.750000
v 1.500000 3.500000 -2.500000
v 1.500000 1.500000 -2.500000
v 1.000000 3.500000 -2.750000
v 1.250000 0.500000 -1.875000
v 1.500000 3.750000 -2.000000
v 1.000000 1.500000 -2.750000
v 1.000000 4.250000 -2.250000
v 2.000000 4.000000 -1.750000
v 2.000000 4.000000 -1.250000
v 2.000000 0.500000 -1.250000
v 2.500000 4.000000 -1.000000
v 3.000000 1.500000 -1.250000
v 3.000000 3.750000 -1.750000
v 3.000000 1.500000 -1.750000
v 2.500000 3.750000 -2.000000
v 2.000000 0.500000 -1.500000
v 3.000000 4.000000 -1.250000
v 2.500000 1.500000 -2.000000
v 2.500000 4.500000 -1.500000
v 0.500000 3.250000 -1.000000
v 0.500000 1.500000 -1.000000
v 0.500000 3.250000 -0.500000
v 0.500000 1.500000 -0.500000
v 1.000000 3.500000 -0.250000
v 1.500000 1.500000 -0.500000
v 1.500000 3.500000 -1.000000
v 1.000000 3.500000 -1.250000
v 1.250000 0.500000 -1.125000
v 1.500000 3.500000 -0.500000
v 1.000000 0.500000 -1.250000
v 1.000000 1.500000 -0.250000
v 1.000000 4.000000 -0.750000
v 0.000000 2.750000 -1.750000
v 0.000000 2.000000 -1.750000
v 0.000000 2.500000 -1.250000
v 0.000000 2.000000 -1.250000
v 0.500000 2.750000 -1.000000
v 1.000000 2.750000 -1.750000
v 1.000000 0.500000 -1.750000
v 0.500000 2.750000 -2.000000
v 1.000000 0.500000 -1.500000
v 1.000000 2.750000 -1.250000
v 0.500000 3.250000 -1.500001
v 1.500000 2.500000 -2.500000
v 1.500000 2.500000 -2.000000
v 1.500000 0.500000 -2.000000
v 2.000000 2.500000 -1.750000
v 2.500000 2.500000 -2.500000
v 2.500000 2.000000 -2.500000
v 2.000000 2.250000 -2.750000
v 1.750000 0.500000 -1.875000
v 2.500000 2.500000 -2.000000
v 2.000000 2.000000 -2.750000
v 2.000000 3.000000 -2.250001
v 1.500000 3.000000 -1.000000
v 1.500000 3.000000 -0.500000
v 2.000000 2.750000 -0.250000
v 2.500000 2.000000 -0.500000
v 2.500000 3.000000 -1.000000
v 2.500000 1.500000 -1.000000
v 2.000000 3.000000 -1.250000
v 1.750000 0.500000 -1.125000
v 2.500000 3.000000 -0.500000
v 2.000000 2.000000 -0.250000
v 2.000000 3.500000 -0.750001
vt 0.6480 0.4332
vt 0.7362 0.3908
vt 0.6384 0.4924
vt 0.6972 0.4805
vt 0.7357 0.5305
vt 0.6392 0.2903
vt 0.6452 0.3500
vt 0.6384 0.3896
vt 0.0163 0.5564
vt 0.1045 0.5987
vt 0.0048 0.5949
vt 0.0133 0.6341
vt 0.0048 0.6966
vt 0.0846 0.4605
vt 0.0458 0.4705
vt 0.0127 0.4934
vt 0.7944 0.7395
vt 0.7719 0.7010
vt 0.8654 0.6723
vt 0.8654 0.5745
vt 0.8162 0.5402
vt 0.7816 0.5606
vt 0.7806 0.6236
vt 0.7663 0.6612
vt 0.2841 0.4606
vt 0.3072 0.4278
vt 0.3719 0.5037
vt 0.2741 0.5041
vt 0.2806 0.5437
vt 0.2741 0.6034
vt 0.3105 0.6291
vt 0.3274 0.3713
vt 0.5812 0.8596
vt 0.5065 0.9228
vt 0.5507 0.8334
vt 0.5114 0.8251
vt 0.4675 0.8331
vt 0.4087 0.8212
vt 0.4183 0.8805
vt 0.4087 0.9240
vt 0.2538 0.8454
vt 0.1929 0.8784
vt 0.1983 0.8154
vt 0.1395 0.8437
vt 0.1454 0.7800
vt 0.2045 0.7032
vt 0.2538 0.7820
vt 0.7563 0.4624
vt 0.7459 0.4236
vt 0.8456 0.4225
vt 0.7833 0.4979
vt 0.8456 0.3247
vt 0.7964 0.2903
vt 0.7816 0.3485
vt 0.7554 0.3846
vt 0.4902 0.8115
vt 0.4489 0.7946
vt 0.5056 0.7149
vt 0.4203 0.7665
vt 0.4087 0.7280
vt 0.5937 0.7576
vt 0.5656 0.7922
vt 0.5304 0.8115
vt 0.6801 0.9299
vt 0.6384 0.7491
vt 0.6584 0.7484
vt 0.6801 0.7431
vt 0.7121 0.7469
vt 0.7318 0.9287
vt 0.6898 0.7466
vt 0.7318 0.7431
vt 0.9690 0.7278
vt 0.9294 0.5444
vt 0.9495 0.5450
vt 0.9690 0.5402
vt 0.0591 0.7123
vt 0.0792 0.7116
vt 0.1009 0.8932
vt 0.1009 0.7063
vt 0.8084 0.9348
vt 0.7663 0.7527
vt 0.7886 0.7530
vt 0.8084 0.7492
vt 0.8381 0.7540
vt 0.8576 0.9368
vt 0.8180 0.7534
vt 0.8576 0.7492
vt 0.4688 0.5148
vt 0.5289 0.6917
vt 0.4911 0.7052
vt 0.4465 0.7052
vt 0.4087 0.6917
vt 0.2248 0.5976
vt 0.1977 0.6935
vt 0.1869 0.4159
vt 0.1575 0.6935
vt 0.1395 0.5974
vt 0.7281 0.1980
vt 0.6986 0.0048
vt 0.7643 0.1806
vt 0.6879 0.1980
vt 0.6460 0.1828
vt 0.6121 0.2806
vt 0.5898 0.0048
vt 0.6363 0.1858
vt 0.5675 0.2806
vt 0.5433 0.1858
vt 0.7567 0.7182
vt 0.7147 0.7334
vt 0.7040 0.5402
vt 0.6746 0.7334
vt 0.6384 0.7160
vt 0.6106 0.5680
vt 0.5812 0.2903
vt 0.6287 0.4718
vt 0.5705 0.5680
vt 0.5433 0.4720
vt 0.9952 0.1411
vt 0.9952 0.2749
vt 0.9550 0.1411
vt 0.9550 0.3195
vt 0.9051 0.1411
vt 0.9453 0.1411
vt 0.9051 0.3641
vt 0.9453 0.4087
vt 0.8684 0.0940
vt 0.8238 0.0940
vt 0.8238 0.0048
vt 0.8684 0.0048
vt 0.8553 0.1411
vt 0.8954 0.1411
vt 0.8553 0.4979
vt 0.8954 0.4979
vt 0.3142 0.9161
vt 0.2741 0.9607
vt 0.2741 0.8269
vt 0.3142 0.8269
vt 0.8751 0.5402
vt 0.9197 0.5402
vt 0.8751 0.8077
vt 0.9197 0.8523
vt 0.9952 0.5076
vt 0.9550 0.5076
vt 0.9550 0.3292
vt 0.9952 0.3292
vt 0.0048 0.0048
vt 0.0450 0.0048
vt 0.0048 0.4508
vt 0.0450 0.4508
vt 0.0896 0.4062
vt 0.0896 0.0048
vt 0.1298 0.0048
vt 0.1298 0.4062
vt 0.8141 0.2724
vt 0.7740 0.2278
vt 0.7740 0.0048
vt 0.8141 0.0048
vt 0.3187 0.8172
vt 0.2741 0.8172
vt 0.2741 0.6388
vt 0.3187 0.7280
vt 0.3588 0.7280
vt 0.3588 0.7726
vt 0.3990 0.8172
vt 0.3990 0.6388
vt 0.0494 0.8847
vt 0.0048 0.9293
vt 0.0048 0.7063
vt 0.0494 0.7063
vt 0.1395 0.0048
vt 0.1796 0.0048
vt 0.1395 0.3616
vt 0.1796 0.3616
vt 0.2198 0.3616
vt 0.2198 0.0048
vt 0.2644 0.0048
vt 0.2644 0.4062
vt 0.9696 0.9159
vt 0.9294 0.9159
vt 0.9294 0.7375
vt 0.9696 0.7375
vt 0.4087 0.5051
vt 0.4087 0.2821
vt 0.4489 0.5051
vt 0.4489 0.3713
vt 0.4935 0.3713
vt 0.4935 0.4605
vt 0.5336 0.5051
vt 0.5336 0.2821
vt 0.3641 0.9161
vt 0.3239 0.9607
vt 0.3239 0.8269
vt 0.3641 0.8269
vt 0.2741 0.0048
vt 0.3187 0.0048
vt 0.2741 0.3170
vt 0.3187 0.3170
vt 0.3588 0.0048
vt 0.3588 0.3616
vt 0.3990 0.3616
vt 0.3990 0.0048
vt 0.5433 0.5777
vt 0.5879 0.5777
vt 0.5433 0.6669
vt 0.5879 0.6669
vt 0.4087 0.0048
vt 0.4489 0.0940
vt 0.4087 0.2724
vt 0.4489 0.2278
vt 0.4890 0.2724
vt 0.4890 0.0940
vt 0.5336 0.0048
vt 0.5336 0.2724
vn 0.1374 0.5494 0.8242
vn -0.1374 0.5494 0.8242
vn -0.7454 0.5963 -0.2981
vn -0.5774 0.5774 -0.5774
vn 0.3333 0.6667 -0.6667
vn 0.7071 0.7071 0.0000
vn 0.3333 0.6667 0.6667
vn -0.3333 0.6667 0.6667
vn -0.3841 0.5121 -0.7682
vn 0.3841 0.5121 -0.7682
vn 0.7454 0.5963 -0.2981
vn -0.7071 0.7071 0.0000
vn -0.1374 0.5494 -0.8242
vn -0.5774 0.5774 0.5774
vn -0.8321 0.5547 0.0000
vn -0.3333 0.6667 -0.6667
vn -0.7454 0.5963 0.2981
vn -0.5774 0.5774 0.5773
vn 0.1374 0.5494 -0.8242
vn 0.7071 -0.7071 0.0000
vn 0.3333 -0.6667 0.6667
vn -0.3333 -0.6667 0.6667
vn -0.7071 -0.7071 0.0000
vn -0.3333 -0.6667 -0.6667
vn 0.3333 -0.6667 -0.6667
vn -0.4082 -0.4082 -0.8165
vn -0.8944 -0.4472 0.0000
vn -0.4082 -0.4082 0.8165
vn 0.4082 -0.4082 0.8165
vn 0.8944 -0.4472 0.0000
vn 0.4082 -0.4082 -0.8165
vn 0.3714 -0.5571 -0.7428
vn 0.3714 -0.5571 0.7428
vn 0.6364 -0.5455 0.5455
vn 0.3841 -0.5121 0.7682
vn 0.0854 -0.5126 0.8544
vn -0.8000 -0.6000 0.0000
vn -0.7428 -0.5571 0.3714
vn -0.8321 -0.5547 0.0000
vn -0.7428 -0.5571 -0.3714
vn 0.0854 -0.5126 -0.8544
vn 0.3841 -0.5121 -0.7682
vn 0.6364 -0.5455 -0.5455
vn -0.4472 0.0000 0.8944
vn 0.4472 -0.0000 0.8944
vn 1.0000 -0.0000 0.0000
vn 0.4472 0.0000 -0.8944
vn -0.4472 0.0000 -0.8944
vn -1.0000 0.0000 0.0000
usemtl None
s off
f 8/1/1 10/2/1 3/3/1
f 2/4/2 3/3/2 10/2/2
f 1/5/3 2/4/3 10/2/3
f 1/6/4 10/2/4 6/7/4
f 4/8/5 6/7/5 10/2/5
f 8/1/6 4/8/6 10/2/6
f 20/9/7 22/10/7 15/11/7
f 13/12/8 15/11/8 22/10/8
f 11/13/3 13/12/3 22/10/3
f 11/14/9 22/10/9 18/15/9
f 16/16/10 18/15/10 22/10/10
f 20/9/11 16/16/11 22/10/11
f 23/17/12 24/18/12 34/19/12
f 23/20/13 34/19/13 30/21/13
f 28/22/10 30/21/10 34/19/10
f 32/23/11 28/22/11 34/19/11
f 32/23/7 34/19/7 26/24/7
f 24/18/8 26/24/8 34/19/8
f 41/25/5 42/26/5 47/27/5
f 44/28/6 41/25/6 47/27/6
f 44/28/7 47/27/7 39/29/7
f 37/30/14 39/29/14 47/27/14
f 35/31/15 37/30/15 47/27/15
f 35/32/4 47/27/4 42/26/4
f 70/33/16 80/34/16 76/35/16
f 74/36/5 76/35/5 80/34/5
f 78/37/6 74/36/6 80/34/6
f 78/37/1 80/34/1 72/38/1
f 71/39/2 72/38/2 80/34/2
f 70/40/12 71/39/12 80/34/12
f 57/41/6 53/42/6 58/43/6
f 53/42/5 55/44/5 58/43/5
f 48/45/16 58/43/16 55/44/16
f 48/45/17 50/46/17 58/43/17
f 50/46/18 52/47/18 58/43/18
f 57/41/7 58/43/7 52/47/7
f 60/48/8 62/49/8 69/50/8
f 59/51/12 60/48/12 69/50/12
f 59/52/13 69/50/13 65/53/13
f 63/54/19 65/53/19 69/50/19
f 67/55/6 63/54/6 69/50/6
f 67/55/7 69/50/7 62/49/7
f 5/56/20 25/57/20 7/58/20
f 9/59/21 7/58/21 25/57/21
f 9/59/22 45/60/22 7/58/22
f 45/61/23 54/62/23 7/58/23
f 61/63/24 7/58/24 54/62/24
f 7/58/25 61/63/25 5/56/25
f 14/64/26 19/65/26 54/66/26
f 56/67/27 14/64/27 54/66/27
f 45/68/27 36/69/27 56/70/27
f 43/71/28 36/69/28 45/68/28
f 40/72/28 43/73/28 9/74/28
f 9/74/29 77/75/29 40/72/29
f 77/76/29 25/77/29 75/78/29
f 25/77/30 31/79/30 75/78/30
f 33/80/30 31/81/30 5/82/30
f 5/82/31 66/83/31 33/80/31
f 61/84/31 17/85/31 66/86/31
f 17/85/26 61/84/26 19/87/26
f 31/88/32 33/89/32 29/90/32
f 29/90/20 27/91/20 31/88/20
f 27/91/33 75/92/33 31/88/33
f 75/93/34 73/94/34 77/95/34
f 79/96/35 77/95/35 73/94/35
f 79/96/36 40/97/36 77/95/36
f 46/98/33 43/99/33 40/100/33
f 46/98/22 38/101/22 43/99/22
f 38/101/37 36/102/37 43/99/37
f 51/103/38 56/104/38 36/105/38
f 51/103/39 49/106/39 56/104/39
f 56/104/40 49/106/40 14/107/40
f 14/108/37 12/109/37 19/110/37
f 21/111/24 19/110/24 12/109/24
f 19/110/32 21/111/32 17/112/32
f 68/113/41 66/114/41 17/115/41
f 66/114/42 68/113/42 64/116/42
f 64/116/43 33/117/43 66/114/43
f 41/118/44 3/119/44 42/120/44
f 3/119/44 2/121/44 42/120/44
f 70/122/45 76/123/45 3/124/45
f 8/125/45 3/124/45 76/123/45
f 4/126/46 8/127/46 24/128/46
f 24/128/46 23/129/46 4/126/46
f 62/130/47 60/131/47 4/132/47
f 6/133/47 4/132/47 60/131/47
f 1/134/48 6/135/48 20/136/48
f 20/136/48 15/137/48 1/134/48
f 53/138/49 57/139/49 1/140/49
f 2/141/49 1/140/49 57/139/49
f 26/142/44 24/143/44 76/144/44
f 74/145/44 26/142/44 76/144/44
f 75/146/45 27/147/45 26/148/45
f 32/149/45 26/148/45 27/147/45
f 27/147/46 28/150/46 32/149/46
f 29/151/46 28/150/46 27/147/46
f 29/151/47 33/152/47 28/150/47
f 30/153/47 28/150/47 33/152/47
f 23/154/48 30/155/48 67/156/48
f 62/157/48 23/154/48 67/156/48
f 63/158/46 67/159/46 33/160/46
f 64/161/46 63/158/46 33/160/46
f 64/161/47 68/162/47 63/158/47
f 65/163/47 63/158/47 68/162/47
f 65/163/48 68/162/48 59/164/48
f 17/165/48 59/164/48 68/162/48
f 16/166/46 20/167/46 60/168/46
f 59/169/46 16/166/46 60/168/46
f 17/170/47 21/171/47 16/172/47
f 18/173/47 16/172/47 21/171/47
f 18/173/48 21/171/48 11/174/48
f 12/175/48 11/174/48 21/171/48
f 12/175/49 14/176/49 11/174/49
f 13/177/49 11/174/49 14/176/49
f 15/178/44 13/179/44 55/180/44
f 53/181/44 15/178/44 55/180/44
f 55/182/48 14/183/48 48/184/48
f 49/185/48 48/184/48 14/183/48
f 49/185/49 51/186/49 48/184/49
f 50/187/49 48/184/49 51/186/49
f 51/186/44 52/188/44 50/187/44
f 52/188/44 51/186/44 36/189/44
f 35/190/48 42/191/48 57/192/48
f 52/193/48 35/190/48 57/192/48
f 36/194/49 38/195/49 35/196/49
f 37/197/49 35/196/49 38/195/49
f 38/195/44 46/198/44 37/197/44
f 39/199/44 37/197/44 46/198/44
f 46/198/45 44/200/45 39/199/45
f 44/200/45 46/198/45 40/201/45
f 71/202/46 70/203/46 44/204/46
f 44/204/46 70/203/46 41/205/46
f 40/206/44 79/207/44 71/208/44
f 72/209/44 71/208/44 79/207/44
f 79/207/45 78/210/45 72/209/45
f 78/210/45 79/207/45 73/211/45
f 73/211/46 75/212/46 78/210/46
f 74/213/46 78/210/46 75/212/46
l 4 5
l 3 9
l 24 25
l 45 42
l 2 45
l 53 54
l 8 25
l 1 54
l 61 6
l 15 54
l 20 61
l 23 5
l 41 9
l 57 45
l 62 5
l 70 9
l 25 76
