# Blender v2.77 (sub 0) OBJ File: 'Selection Crystal.blend'
# www.blender.org
mtllib Selection Crystal.mtl
o Cylinder
v 0.500000 1.500000 -1.000000
v 0.933013 0.500000 -0.250000
v 0.933013 1.500000 -0.250000
v 0.500000 1.500000 0.000000
v 0.066987 1.500000 -0.250000
v 0.933013 1.500000 -0.750000
v 0.500000 2.000000 -0.500000
v 0.066987 1.500000 -0.750000
v 0.500000 0.500000 -1.000000
v 0.933013 0.500000 -0.750000
v 0.500000 0.000000 -0.500000
v 0.500000 0.500000 0.000000
v 0.066987 0.500000 -0.250000
v 0.066987 0.500000 -0.750000
vt 0.6608 0.3568
vt 0.6608 0.0001
vt 0.8215 0.0001
vt 0.8215 0.3568
vt 0.9999 0.0001
vt 0.9999 0.3568
vt 0.0001 0.3568
vt 0.0001 0.0001
vt 0.1609 0.0001
vt 0.1609 0.3568
vt 0.3217 0.0001
vt 0.3217 0.3568
vt 0.5000 0.0001
vt 0.5000 0.3568
vt 0.4560 0.6717
vt 0.2380 0.5449
vt 0.4759 0.5121
vt 0.3877 0.3571
vt 0.0001 0.5121
vt 0.0200 0.6717
vt 0.1488 0.7678
vt 0.3272 0.7678
vt 0.9320 0.4533
vt 0.9519 0.6128
vt 0.7140 0.5801
vt 0.8637 0.7678
vt 0.4762 0.6128
vt 0.4960 0.4533
vt 0.6249 0.3571
vt 0.8032 0.3571
vn 0.5000 0.0000 -0.8660
vn 1.0000 0.0000 0.0000
vn 0.5000 0.0000 0.8660
vn -0.5000 0.0000 0.8660
vn -1.0000 0.0000 0.0000
vn -0.5000 -0.0000 -0.8660
vn 0.3780 0.6547 -0.6547
vn 0.7559 0.6547 0.0000
vn 0.3780 0.6547 0.6547
vn -0.3780 0.6547 0.6547
vn -0.7559 0.6547 0.0000
vn -0.3780 0.6547 -0.6547
vn 0.3780 -0.6547 -0.6547
vn 0.7559 -0.6547 0.0000
vn 0.3780 -0.6547 0.6547
vn -0.3780 -0.6547 0.6547
vn -0.7559 -0.6547 0.0000
vn -0.3780 -0.6547 -0.6547
usemtl None
s off
f 9/1/1 1/2/1 6/3/1 10/4/1
f 10/4/2 6/3/2 3/5/2 2/6/2
f 2/7/3 3/8/3 4/9/3 12/10/3
f 12/10/4 4/9/4 5/11/4 13/12/4
f 13/12/5 5/11/5 8/13/5 14/14/5
f 14/14/6 8/13/6 1/2/6 9/1/6
f 1/15/7 7/16/7 6/17/7
f 6/17/8 7/16/8 3/18/8
f 3/19/9 7/16/9 4/20/9
f 4/20/10 7/16/10 5/21/10
f 5/21/11 7/16/11 8/22/11
f 8/22/12 7/16/12 1/15/12
f 9/23/13 10/24/13 11/25/13
f 10/24/14 2/26/14 11/25/14
f 2/27/15 12/28/15 11/25/15
f 12/28/16 13/29/16 11/25/16
f 13/29/17 14/30/17 11/25/17
f 14/30/18 9/23/18 11/25/18
